<svg width="324" height="114" viewBox="0 0 324 114" fill="none" xmlns="http://www.w3.org/2000/svg">
<rect x="1" y="1" width="322" height="112" stroke="#12EBAA" stroke-width="2"/>
<path d="M65.17 42.86C61.804 50.068 60.036 53.774 58.54 57.242C57.044 53.774 55.174 50.034 51.74 42.86H48.408L56.976 59.826L53.508 67H56.568L68.332 42.86H65.17ZM81.8265 56.936H71.6605V49.49H68.7365V67H71.6605V59.52H81.8265V67H84.7845V49.49H81.8265V56.936ZM92.0473 62.886V49.49H89.1233V67H91.8433L102.757 53.774V67H105.715V49.49H102.961L92.0473 62.886ZM118.472 67.34C120.682 67.34 122.62 66.66 124.116 65.266V62.342C122.722 63.702 120.988 64.688 118.744 64.688C115.038 64.688 112.182 61.866 112.182 58.228C112.182 54.59 115.038 51.802 118.744 51.802C120.988 51.802 122.722 52.754 124.116 54.148V51.19C122.62 49.83 120.682 49.116 118.472 49.116C113.032 49.116 109.19 53.026 109.19 58.228C109.19 63.43 113.032 67.34 118.472 67.34ZM135.761 49.116C130.593 49.116 126.853 53.094 126.853 58.228C126.853 63.736 130.763 67.34 136.033 67.34C140.181 67.34 143.275 64.858 144.193 61.9L141.575 61.594C140.793 63.26 138.957 64.858 136.067 64.858C132.667 64.858 130.015 62.58 129.811 59.146H144.703C144.805 52.958 141.099 49.116 135.761 49.116ZM135.761 51.564C139.161 51.564 141.507 53.876 141.609 56.868H129.811C130.049 53.808 132.531 51.564 135.761 51.564ZM153.838 57.582L163.29 49.49H159.72L150.88 57.004C151.05 55.202 151.05 53.162 151.05 49.49H148.092V67H151.05C151.05 63.294 151.016 60.574 150.846 58.16L159.754 67H163.324L153.838 57.582ZM172.594 67.34C174.804 67.34 176.742 66.66 178.238 65.266V62.342C176.844 63.702 175.11 64.688 172.866 64.688C169.16 64.688 166.304 61.866 166.304 58.228C166.304 54.59 169.16 51.802 172.866 51.802C175.11 51.802 176.844 52.754 178.238 54.148V51.19C176.742 49.83 174.804 49.116 172.594 49.116C167.154 49.116 163.312 53.026 163.312 58.228C163.312 63.43 167.154 67.34 172.594 67.34ZM198.673 58.194L192.383 49.49H189.629V67H192.553C192.553 60.302 192.519 56.902 192.179 52.924C193.879 55.848 195.511 58.33 198.673 62.342C201.937 58.194 203.603 55.678 205.201 52.822C204.861 56.902 204.793 60.302 204.793 67H207.751V49.49H204.963L198.673 58.194ZM220.506 67.34C225.81 67.34 229.822 63.43 229.822 58.228C229.822 53.026 225.81 49.116 220.506 49.116C215.168 49.116 211.156 53.026 211.156 58.228C211.156 63.43 215.168 67.34 220.506 67.34ZM220.506 64.654C216.868 64.654 214.046 61.866 214.046 58.194C214.046 54.556 216.868 51.802 220.506 51.802C224.144 51.802 226.932 54.556 226.932 58.194C226.932 61.866 224.144 64.654 220.506 64.654ZM248.831 49.49H234.959L234.687 60.948C234.653 63.362 233.939 64.246 233.327 64.246H231.185V70.978H233.905V67H248.457V70.978H251.177V64.246H248.831V49.49ZM236.557 64.246C236.897 64.042 237.475 63.022 237.543 60.778L237.747 52.142H245.907V64.246H236.557ZM268.837 53.468V53.298C267.477 50.714 264.893 49.116 261.867 49.116C256.461 49.116 252.925 52.992 252.925 58.194C252.925 63.328 256.393 67.34 261.697 67.34C265.165 67.34 267.749 65.572 268.837 62.886V67H271.829V49.49H269.279L268.837 53.468ZM262.411 64.688C258.637 64.688 255.951 62.002 255.951 58.228C255.951 54.488 258.637 51.802 262.411 51.802C266.151 51.802 268.803 54.624 268.803 58.228C268.803 61.866 266.151 64.688 262.411 64.688Z" fill="#12EBAA"/>
</svg>
