<svg width="325" height="114" viewBox="0 0 325 114" fill="none" xmlns="http://www.w3.org/2000/svg">
<rect x="1.91406" y="1" width="322" height="112" stroke="#EBFF00" stroke-width="2"/>
<path d="M46.5541 54.216C48.8661 53.4 50.0901 51.496 50.0901 49.014C50.0901 44.968 46.7241 42.52 41.6581 42.52C35.8781 42.52 32.4781 45.92 32.4781 50.442H35.4361C35.4361 47.382 37.9861 45.24 41.5221 45.24C44.7861 45.24 47.0641 46.838 47.0641 49.218C47.0641 51.428 45.3641 53.196 41.5221 53.264H39.2781V55.882H41.4541C45.0581 55.882 48.1181 56.97 48.1181 60.03C48.1181 62.58 45.7721 64.62 41.8281 64.62C38.0881 64.62 34.9941 62.682 34.9941 59.248H32.0361C32.0361 63.974 35.4701 67.34 41.8281 67.34C47.7781 67.34 51.1781 64.144 51.1781 60.098C51.1781 56.936 49.2401 54.964 46.5541 54.216ZM57.5297 62.886V49.49H54.6057V67H57.3257L68.2397 53.774V67H71.1977V49.49H68.4437L57.5297 62.886ZM84.6009 58.194L78.3109 49.49H75.5569V67H78.4809C78.4809 60.302 78.4469 56.902 78.1069 52.924C79.8069 55.848 81.4389 58.33 84.6009 62.342C87.8649 58.194 89.5309 55.678 91.1289 52.822C90.7889 56.902 90.7209 60.302 90.7209 67H93.6789V49.49H90.8909L84.6009 58.194ZM111.125 56.936H100.959V49.49H98.0354V67H100.959V59.52H111.125V67H114.083V49.49H111.125V56.936ZM121.346 62.886V49.49H118.422V67H121.142L132.056 53.774V67H135.014V49.49H132.26L121.346 62.886ZM147.329 49.116C142.161 49.116 138.421 53.094 138.421 58.228C138.421 63.736 142.331 67.34 147.601 67.34C151.749 67.34 154.843 64.858 155.761 61.9L153.143 61.594C152.361 63.26 150.525 64.858 147.635 64.858C144.235 64.858 141.583 62.58 141.379 59.146H156.271C156.373 52.958 152.667 49.116 147.329 49.116ZM147.329 51.564C150.729 51.564 153.075 53.876 153.177 56.868H141.379C141.617 53.808 144.099 51.564 147.329 51.564ZM175.762 67.34C181.066 67.34 185.078 63.43 185.078 58.228C185.078 53.026 181.066 49.116 175.762 49.116C170.424 49.116 166.412 53.026 166.412 58.228C166.412 63.43 170.424 67.34 175.762 67.34ZM175.762 64.654C172.124 64.654 169.302 61.866 169.302 58.194C169.302 54.556 172.124 51.802 175.762 51.802C179.4 51.802 182.188 54.556 182.188 58.194C182.188 61.866 179.4 64.654 175.762 64.654ZM197.355 49.762C194.703 49.762 191.983 50.884 190.623 53.74C190.827 48.096 193.445 46.192 197.015 45.444L203.917 44.016V41.466L196.335 43.03C190.963 44.118 187.767 47.824 187.767 54.556V57.752C187.767 64.178 192.119 67.34 196.913 67.34C202.217 67.34 205.991 63.634 205.991 58.466C205.991 53.298 202.353 49.762 197.355 49.762ZM196.947 64.654C193.309 64.654 190.725 62.07 190.725 58.432C190.725 54.828 193.309 52.278 196.947 52.278C200.517 52.278 203.067 54.828 203.067 58.432C203.067 62.07 200.517 64.654 196.947 64.654ZM219.231 49.15C215.763 49.15 213.179 50.918 212.091 53.57V53.502L211.649 49.49H209.133V74.82H212.091V63.158C213.451 65.776 216.035 67.34 219.095 67.34C224.467 67.34 228.003 63.498 228.003 58.296C228.003 53.162 224.569 49.15 219.231 49.15ZM218.517 64.688C214.777 64.688 212.125 61.866 212.125 58.262C212.125 54.624 214.777 51.802 218.517 51.802C222.291 51.802 225.011 54.488 225.011 58.262C225.011 62.002 222.291 64.688 218.517 64.688ZM246.372 53.468V53.298C245.012 50.714 242.428 49.116 239.402 49.116C233.996 49.116 230.46 52.992 230.46 58.194C230.46 63.328 233.928 67.34 239.232 67.34C242.7 67.34 245.284 65.572 246.372 62.886V67H249.364V49.49H246.814L246.372 53.468ZM239.946 64.688C236.172 64.688 233.486 62.002 233.486 58.228C233.486 54.488 236.172 51.802 239.946 51.802C243.686 51.802 246.338 54.624 246.338 58.228C246.338 61.866 243.686 64.688 239.946 64.688ZM264.809 57.752C266.577 56.97 267.359 55.61 267.359 54.08C267.359 51.156 264.673 49.116 260.253 49.116C255.391 49.116 252.773 51.836 252.671 54.998H255.527C255.527 52.924 257.295 51.428 260.117 51.428C262.667 51.428 264.435 52.516 264.435 54.216C264.435 56.188 262.191 56.936 260.117 56.936H258.349V59.044H260.321C262.837 59.044 265.251 59.826 265.251 61.9C265.251 63.634 263.483 65.062 260.491 65.062C257.363 65.062 255.187 63.498 255.187 61.356H252.331C252.433 64.688 255.221 67.34 260.423 67.34C265.523 67.34 268.209 64.892 268.209 61.832C268.209 59.826 267.019 58.398 264.809 57.752ZM274.246 55.27V49.49H271.322V67H278.904C283.052 67 285.942 64.858 285.942 61.152C285.942 57.412 283.052 55.27 278.904 55.27H274.246ZM288.764 67H291.722V49.49H288.764V67ZM274.246 64.484V57.786H278.632C281.182 57.786 283.018 58.874 283.018 61.118C283.018 63.362 281.182 64.484 278.632 64.484H274.246Z" fill="#EBFF00"/>
</svg>
