<svg width="212" height="48" viewBox="0 0 212 48" fill="none" xmlns="http://www.w3.org/2000/svg">
<path d="M29.125 47.2028V0.84375H58.9273V9.45329H39.0591V19.7847H58.9273V28.3943H39.0591V47.2028H29.125Z" fill="#F2F2F2"/>
<path d="M61.2422 0.84375H71.1763V38.5933H93.6935V47.2028H61.2422V0.84375Z" fill="#F2F2F2"/>
<path d="M131.845 47.2028L128.003 33.7587H109.129L105.287 47.2028H96.0156L109.327 0.84375H118.599L111.645 25.1491H125.553L118.599 0.84375H128.533L141.779 47.2028H131.845Z" fill="#F2F2F2"/>
<path d="M202.04 47.2028L198.199 33.7587H179.324L175.483 47.2028H166.211L179.523 0.84375H188.794L181.841 25.1491H195.748L188.794 0.84375H198.729L211.974 47.2028H202.04Z" fill="#F2F2F2"/>
<path d="M154.363 47.2028L167.542 0.84375H176.814L163.635 47.2028H154.363ZM141.051 0.84375L154.363 47.2028H144.429L131.117 0.84375H141.051Z" fill="#F2F2F2"/>
<rect x="19.8516" y="0.84375" width="6.95386" height="46.3591" fill="#F2F2F2"/>
<rect x="12.5703" y="0.84375" width="5.29818" height="46.3591" fill="#F2F2F2"/>
<rect x="6.27344" y="0.84375" width="3.31136" height="46.3591" fill="#F2F2F2"/>
<rect x="0.976562" y="0.84375" width="1.65568" height="46.3591" fill="#F2F2F2"/>
</svg>
