<svg width="175" height="41" viewBox="0 0 175 41" fill="none" xmlns="http://www.w3.org/2000/svg">
<g clip-path="url(#clip0_505_996)">
<path d="M41.7656 20.5C41.7656 9.17815 32.5875 0 21.2656 0C9.94378 0 0.765625 9.17815 0.765625 20.5C0.765625 30.732 8.26214 39.2131 18.0625 40.751V26.4258H12.8574V20.5H18.0625V15.9836C18.0625 10.8458 21.1231 8.00781 25.8057 8.00781C28.0478 8.00781 30.3945 8.4082 30.3945 8.4082V13.4531H27.8096C25.2631 13.4531 24.4688 15.0335 24.4688 16.6562V20.5H30.1543L29.2454 26.4258H24.4688V40.751C34.2691 39.2131 41.7656 30.732 41.7656 20.5Z" fill="white"/>
</g>
<g clip-path="url(#clip1_505_996)">
<path d="M80.3492 37.1563C95.4398 37.1563 103.696 24.3382 103.696 13.2258C103.696 12.8654 103.688 12.4971 103.673 12.1367C105.279 10.9462 106.665 9.47153 107.766 7.78206C106.27 8.4642 104.682 8.9097 103.055 9.10335C104.768 8.05131 106.05 6.39861 106.664 4.45161C105.053 5.43013 103.292 6.12039 101.455 6.4928C100.217 5.14484 98.5806 4.25233 96.7984 3.95326C95.0163 3.65419 93.1876 3.96522 91.5952 4.83826C90.0028 5.71129 88.7353 7.09771 87.9887 8.78317C87.2421 10.4686 87.058 12.3592 87.4648 14.1627C84.2031 13.9949 81.0122 13.1264 78.0989 11.6135C75.1857 10.1006 72.6151 7.97705 70.5539 5.38052C69.5063 7.23188 69.1857 9.42265 69.6573 11.5076C70.129 13.5925 71.3574 15.4151 73.093 16.6051C71.79 16.5627 70.5156 16.2031 69.375 15.556V15.6601C69.3738 17.603 70.0291 19.4863 71.2295 20.99C72.4298 22.4936 74.1012 23.5248 75.9594 23.9082C74.7524 24.2467 73.4856 24.296 72.257 24.0523C72.7814 25.7232 73.8016 27.1846 75.1752 28.2326C76.5489 29.2805 78.2075 29.8628 79.9195 29.898C77.013 32.2382 73.4226 33.5076 69.7266 33.5015C69.0711 33.5005 68.4163 33.4593 67.7656 33.3782C71.5204 35.8473 75.8882 37.1587 80.3492 37.1563Z" fill="white"/>
</g>
<g clip-path="url(#clip2_505_996)">
<path d="M154.266 3.6916C159.743 3.6916 160.392 3.71562 162.546 3.81172C164.548 3.8998 165.629 4.23613 166.349 4.51641C167.302 4.88477 167.991 5.3332 168.704 6.0459C169.424 6.7666 169.865 7.44727 170.233 8.4002C170.513 9.1209 170.85 10.21 170.938 12.2039C171.034 14.366 171.058 15.0146 171.058 20.484C171.058 25.9613 171.034 26.61 170.938 28.7641C170.85 30.766 170.513 31.8471 170.233 32.5678C169.865 33.5207 169.416 34.2094 168.704 34.9221C167.983 35.6428 167.302 36.0832 166.349 36.4516C165.629 36.7318 164.54 37.0682 162.546 37.1563C160.384 37.2523 159.735 37.2764 154.266 37.2764C148.788 37.2764 148.14 37.2523 145.986 37.1563C143.984 37.0682 142.903 36.7318 142.182 36.4516C141.229 36.0832 140.54 35.6348 139.828 34.9221C139.107 34.2014 138.666 33.5207 138.298 32.5678C138.018 31.8471 137.681 30.758 137.593 28.7641C137.497 26.602 137.473 25.9533 137.473 20.484C137.473 15.0066 137.497 14.358 137.593 12.2039C137.681 10.202 138.018 9.1209 138.298 8.4002C138.666 7.44727 139.115 6.75859 139.828 6.0459C140.548 5.3252 141.229 4.88477 142.182 4.51641C142.903 4.23613 143.992 3.8998 145.986 3.81172C148.14 3.71562 148.788 3.6916 154.266 3.6916ZM154.266 0C148.7 0 148.004 0.0240234 145.817 0.120117C143.639 0.216211 142.142 0.568555 140.845 1.07305C139.491 1.60156 138.346 2.29824 137.209 3.44336C136.064 4.58047 135.367 5.72559 134.839 7.0709C134.334 8.37617 133.982 9.86562 133.886 12.0437C133.79 14.2379 133.766 14.9346 133.766 20.5C133.766 26.0654 133.79 26.7621 133.886 28.9482C133.982 31.1264 134.334 32.6238 134.839 33.9211C135.367 35.2744 136.064 36.4195 137.209 37.5566C138.346 38.6938 139.491 39.3984 140.837 39.9189C142.142 40.4234 143.631 40.7758 145.809 40.8719C147.996 40.968 148.692 40.992 154.258 40.992C159.823 40.992 160.52 40.968 162.706 40.8719C164.884 40.7758 166.381 40.4234 167.679 39.9189C169.024 39.3984 170.169 38.6938 171.306 37.5566C172.443 36.4195 173.148 35.2744 173.669 33.9291C174.173 32.6238 174.525 31.1344 174.621 28.9563C174.718 26.7701 174.742 26.0734 174.742 20.508C174.742 14.9426 174.718 14.2459 174.621 12.0598C174.525 9.88164 174.173 8.38418 173.669 7.08691C173.164 5.72559 172.467 4.58047 171.322 3.44336C170.185 2.30625 169.04 1.60156 167.695 1.08105C166.389 0.576562 164.9 0.224219 162.722 0.128125C160.528 0.0240234 159.831 0 154.266 0Z" fill="white"/>
<path d="M154.265 9.96973C148.451 9.96973 143.734 14.6863 143.734 20.5C143.734 26.3137 148.451 31.0303 154.265 31.0303C160.078 31.0303 164.795 26.3137 164.795 20.5C164.795 14.6863 160.078 9.96973 154.265 9.96973ZM154.265 27.3307C150.493 27.3307 147.434 24.2717 147.434 20.5C147.434 16.7283 150.493 13.6693 154.265 13.6693C158.036 13.6693 161.095 16.7283 161.095 20.5C161.095 24.2717 158.036 27.3307 154.265 27.3307Z" fill="white"/>
<path d="M167.667 9.55325C167.667 10.9146 166.562 12.0116 165.208 12.0116C163.847 12.0116 162.75 10.9066 162.75 9.55325C162.75 8.19192 163.855 7.09485 165.208 7.09485C166.562 7.09485 167.667 8.19993 167.667 9.55325Z" fill="white"/>
</g>
<defs>
<clipPath id="clip0_505_996">
<rect width="41" height="41" fill="white" transform="translate(0.765625)"/>
</clipPath>
<clipPath id="clip1_505_996">
<rect width="40" height="41" fill="white" transform="translate(67.7656)"/>
</clipPath>
<clipPath id="clip2_505_996">
<rect width="41" height="41" fill="white" transform="translate(133.766)"/>
</clipPath>
</defs>
</svg>
