<svg width="105" height="98" viewBox="0 0 105 98" fill="none" xmlns="http://www.w3.org/2000/svg">
<path d="M2.79241 93.7758C1.69036 93.8503 0.857401 94.8041 0.931945 95.9062C1.00649 97.0082 1.96031 97.8412 3.06236 97.7667L2.79241 93.7758ZM95.0452 1.40978C94.4795 0.461073 93.2518 0.150594 92.3031 0.716306L76.843 9.93511C75.8943 10.5008 75.5838 11.7285 76.1496 12.6772C76.7153 13.6259 77.943 13.9364 78.8917 13.3707L92.6339 5.17619L100.828 18.9185C101.394 19.8672 102.622 20.1777 103.571 19.6119C104.519 19.0462 104.83 17.8186 104.264 16.8698L95.0452 1.40978ZM3.06236 97.7667C26.539 96.1787 77.0907 74.7939 95.2664 2.92445L91.3885 1.94373C73.6564 72.0589 24.6209 92.2993 2.79241 93.7758L3.06236 97.7667Z" fill="#111112"/>
</svg>
